STARTFONT 2.1
COMMENT Copyright (c) 2011,  Aaron Christianson  ninjaaron@gmail.com
COMMENT licenced under the OFL 1.1
COMMENT 1
FONT -aaron-bitocrafull-medium-r-normal--10-100-72-72-C-90-ISO8859-1
SIZE 10 72 72
FONTBOUNDINGBOX 7 11 0 -2
STARTPROPERTIES 25
FONTNAME_REGISTRY ""
FOUNDRY "aaron"
FAMILY_NAME "bitocrafull"
WEIGHT_NAME "medium"
SLANT "r"
SETWIDTH_NAME "normal"
ADD_STYLE_NAME ""
PIXEL_SIZE 10
POINT_SIZE 100
RESOLUTION_X 72
RESOLUTION_Y 72
SPACING "C"
AVERAGE_WIDTH 90
CHARSET_REGISTRY "ISO8859"
CHARSET_ENCODING "1"
COPYRIGHT "CC, Aaron Christianson"
FACE_NAME "bitocrafull"
WEIGHT 10
X_HEIGHT 8
QUAD_WIDTH 8
_ORIGINAL_FONT_NAME "bitocra"
_GBDFED_INFO "Edited with gbdfed 1.6."
DEFAULT_CHAR 63
FONT_DESCENT 2
FONT_ASCENT 8
ENDPROPERTIES
CHARS 440
STARTCHAR char32
ENCODING 32
SWIDTH 700 0
DWIDTH 7 0
BBX 7 11 0 -2
BITMAP
00
00
00
00
00
00
00
00
00
00
00
ENDCHAR
STARTCHAR char33
ENCODING 33
SWIDTH 700 0
DWIDTH 7 0
BBX 7 11 0 -2
BITMAP
00
00
00
40
40
40
40
00
40
00
00
ENDCHAR
STARTCHAR char34
ENCODING 34
SWIDTH 700 0
DWIDTH 7 0
BBX 7 11 0 -2
BITMAP
00
00
28
28
00
00
00
00
00
00
00
ENDCHAR
STARTCHAR char35
ENCODING 35
SWIDTH 700 0
DWIDTH 7 0
BBX 7 11 0 -2
BITMAP
00
00
00
28
7C
28
7C
28
00
00
00
ENDCHAR
STARTCHAR char36
ENCODING 36
SWIDTH 700 0
DWIDTH 7 0
BBX 7 11 0 -2
BITMAP
00
00
00
10
7C
50
7C
14
7C
10
00
ENDCHAR
STARTCHAR char37
ENCODING 37
SWIDTH 700 0
DWIDTH 7 0
BBX 7 11 0 -2
BITMAP
00
00
00
60
6C
18
30
6C
0C
00
00
ENDCHAR
STARTCHAR char38
ENCODING 38
SWIDTH 700 0
DWIDTH 7 0
BBX 7 11 0 -2
BITMAP
00
00
00
38
20
74
48
48
74
00
00
ENDCHAR
STARTCHAR char39
ENCODING 39
SWIDTH 700 0
DWIDTH 7 0
BBX 7 11 0 -2
BITMAP
00
00
30
20
00
00
00
00
00
00
00
ENDCHAR
STARTCHAR char40
ENCODING 40
SWIDTH 700 0
DWIDTH 7 0
BBX 7 11 0 -2
BITMAP
00
00
10
20
20
20
20
20
20
10
00
ENDCHAR
STARTCHAR char41
ENCODING 41
SWIDTH 700 0
DWIDTH 7 0
BBX 7 11 0 -2
BITMAP
00
00
20
10
10
10
10
10
10
20
00
ENDCHAR
STARTCHAR char42
ENCODING 42
SWIDTH 700 0
DWIDTH 7 0
BBX 7 11 0 -2
BITMAP
00
00
00
10
54
38
54
10
00
00
00
ENDCHAR
STARTCHAR char43
ENCODING 43
SWIDTH 700 0
DWIDTH 7 0
BBX 7 11 0 -2
BITMAP
00
00
00
00
10
10
7C
10
10
00
00
ENDCHAR
STARTCHAR char44
ENCODING 44
SWIDTH 700 0
DWIDTH 7 0
BBX 7 11 0 -2
BITMAP
00
00
00
00
00
00
00
30
10
10
00
ENDCHAR
STARTCHAR char45
ENCODING 45
SWIDTH 700 0
DWIDTH 7 0
BBX 7 11 0 -2
BITMAP
00
00
00
00
00
00
7C
00
00
00
00
ENDCHAR
STARTCHAR char46
ENCODING 46
SWIDTH 700 0
DWIDTH 7 0
BBX 7 11 0 -2
BITMAP
00
00
00
00
00
00
00
30
30
00
00
ENDCHAR
STARTCHAR char47
ENCODING 47
SWIDTH 700 0
DWIDTH 7 0
BBX 7 11 0 -2
BITMAP
00
00
08
08
10
10
20
20
40
40
00
ENDCHAR
STARTCHAR char48
ENCODING 48
SWIDTH 700 0
DWIDTH 7 0
BBX 7 11 0 -2
BITMAP
00
00
00
78
48
58
68
48
78
00
00
ENDCHAR
STARTCHAR char49
ENCODING 49
SWIDTH 700 0
DWIDTH 7 0
BBX 7 11 0 -2
BITMAP
00
00
00
60
20
20
28
28
78
00
00
ENDCHAR
STARTCHAR char50
ENCODING 50
SWIDTH 700 0
DWIDTH 7 0
BBX 7 11 0 -2
BITMAP
00
00
00
78
08
78
40
40
78
00
00
ENDCHAR
STARTCHAR char51
ENCODING 51
SWIDTH 700 0
DWIDTH 7 0
BBX 7 11 0 -2
BITMAP
00
00
00
78
08
38
08
08
78
00
00
ENDCHAR
STARTCHAR char52
ENCODING 52
SWIDTH 700 0
DWIDTH 7 0
BBX 7 11 0 -2
BITMAP
00
00
00
40
50
50
78
10
10
00
00
ENDCHAR
STARTCHAR char53
ENCODING 53
SWIDTH 700 0
DWIDTH 7 0
BBX 7 11 0 -2
BITMAP
00
00
00
78
40
78
08
08
78
00
00
ENDCHAR
STARTCHAR char54
ENCODING 54
SWIDTH 700 0
DWIDTH 7 0
BBX 7 11 0 -2
BITMAP
00
00
00
60
40
40
78
48
78
00
00
ENDCHAR
STARTCHAR char55
ENCODING 55
SWIDTH 700 0
DWIDTH 7 0
BBX 7 11 0 -2
BITMAP
00
00
00
78
08
18
30
20
20
00
00
ENDCHAR
STARTCHAR char56
ENCODING 56
SWIDTH 700 0
DWIDTH 7 0
BBX 7 11 0 -2
BITMAP
00
00
00
38
28
78
48
48
78
00
00
ENDCHAR
STARTCHAR char57
ENCODING 57
SWIDTH 700 0
DWIDTH 7 0
BBX 7 11 0 -2
BITMAP
00
00
00
78
48
78
08
08
18
00
00
ENDCHAR
STARTCHAR char58
ENCODING 58
SWIDTH 700 0
DWIDTH 7 0
BBX 7 11 0 -2
BITMAP
00
00
00
00
30
30
00
30
30
00
00
ENDCHAR
STARTCHAR char59
ENCODING 59
SWIDTH 700 0
DWIDTH 7 0
BBX 7 11 0 -2
BITMAP
00
00
00
00
30
30
00
30
10
10
00
ENDCHAR
STARTCHAR char60
ENCODING 60
SWIDTH 700 0
DWIDTH 7 0
BBX 7 11 0 -2
BITMAP
00
00
00
00
18
30
60
30
18
00
00
ENDCHAR
STARTCHAR char61
ENCODING 61
SWIDTH 700 0
DWIDTH 7 0
BBX 7 11 0 -2
BITMAP
00
00
00
00
00
78
00
78
00
00
00
ENDCHAR
STARTCHAR char62
ENCODING 62
SWIDTH 700 0
DWIDTH 7 0
BBX 7 11 0 -2
BITMAP
00
00
00
00
60
30
18
30
60
00
00
ENDCHAR
STARTCHAR char63
ENCODING 63
SWIDTH 700 0
DWIDTH 7 0
BBX 7 11 0 -2
BITMAP
00
00
00
78
48
08
38
20
00
20
00
ENDCHAR
STARTCHAR char64
ENCODING 64
SWIDTH 700 0
DWIDTH 7 0
BBX 7 11 0 -2
BITMAP
00
00
7C
44
04
04
74
54
7C
00
00
ENDCHAR
STARTCHAR char65
ENCODING 65
SWIDTH 700 0
DWIDTH 7 0
BBX 7 11 0 -2
BITMAP
00
00
00
38
48
48
48
78
48
00
00
ENDCHAR
STARTCHAR char66
ENCODING 66
SWIDTH 700 0
DWIDTH 7 0
BBX 7 11 0 -2
BITMAP
00
00
00
70
50
78
48
48
78
00
00
ENDCHAR
STARTCHAR char67 QUOTE THIS SHIT
ENCODING 67
SWIDTH 700 0
DWIDTH 7 0
BBX 7 11 0 -2
BITMAP
00
00
00
38
40
40
40
40
78
00
00
ENDCHAR
STARTCHAR char68
ENCODING 68
SWIDTH 700 0
DWIDTH 7 0
BBX 7 11 0 -2
BITMAP
00
00
00
78
24
24
24
24
78
00
00
ENDCHAR
STARTCHAR char69
ENCODING 69
SWIDTH 700 0
DWIDTH 7 0
BBX 7 11 0 -2
BITMAP
00
00
00
78
40
70
40
40
78
00
00
ENDCHAR
STARTCHAR char70
ENCODING 70
SWIDTH 700 0
DWIDTH 7 0
BBX 7 11 0 -2
BITMAP
00
00
00
78
40
70
40
40
40
00
00
ENDCHAR
STARTCHAR char71
ENCODING 71
SWIDTH 700 0
DWIDTH 7 0
BBX 7 11 0 -2
BITMAP
00
00
00
38
40
40
58
48
78
00
00
ENDCHAR
STARTCHAR char72
ENCODING 72
SWIDTH 700 0
DWIDTH 7 0
BBX 7 11 0 -2
BITMAP
00
00
00
48
48
48
78
48
48
00
00
ENDCHAR
STARTCHAR char73
ENCODING 73
SWIDTH 700 0
DWIDTH 7 0
BBX 7 11 0 -2
BITMAP
00
00
00
38
10
10
10
10
38
00
00
ENDCHAR
STARTCHAR char74
ENCODING 74
SWIDTH 700 0
DWIDTH 7 0
BBX 7 11 0 -2
BITMAP
00
00
00
70
10
10
10
90
F0
00
00
ENDCHAR
STARTCHAR char75
ENCODING 75
SWIDTH 700 0
DWIDTH 7 0
BBX 7 11 0 -2
BITMAP
00
00
00
48
48
48
70
48
48
00
00
ENDCHAR
STARTCHAR char76
ENCODING 76
SWIDTH 700 0
DWIDTH 7 0
BBX 7 11 0 -2
BITMAP
00
00
00
40
40
40
40
40
78
00
00
ENDCHAR
STARTCHAR char77
ENCODING 77
SWIDTH 700 0
DWIDTH 7 0
BBX 7 11 0 -2
BITMAP
00
00
00
44
6C
7C
54
44
44
00
00
ENDCHAR
STARTCHAR char78
ENCODING 78
SWIDTH 700 0
DWIDTH 7 0
BBX 7 11 0 -2
BITMAP
00
00
00
48
48
68
78
58
48
00
00
ENDCHAR
STARTCHAR char79
ENCODING 79
SWIDTH 700 0
DWIDTH 7 0
BBX 7 11 0 -2
BITMAP
00
00
00
78
48
48
48
48
78
00
00
ENDCHAR
STARTCHAR char80
ENCODING 80
SWIDTH 700 0
DWIDTH 7 0
BBX 7 11 0 -2
BITMAP
00
00
00
7C
24
24
3C
20
20
00
00
ENDCHAR
STARTCHAR char81
ENCODING 81
SWIDTH 700 0
DWIDTH 7 0
BBX 7 11 0 -2
BITMAP
00
00
00
38
48
48
48
48
70
18
00
ENDCHAR
STARTCHAR char82
ENCODING 82
SWIDTH 700 0
DWIDTH 7 0
BBX 7 11 0 -2
BITMAP
00
00
00
78
48
48
70
48
48
00
00
ENDCHAR
STARTCHAR char83
ENCODING 83
SWIDTH 700 0
DWIDTH 7 0
BBX 7 11 0 -2
BITMAP
00
00
00
38
40
40
78
08
78
00
00
ENDCHAR
STARTCHAR char84
ENCODING 84
SWIDTH 700 0
DWIDTH 7 0
BBX 7 11 0 -2
BITMAP
00
00
00
7C
54
10
10
10
10
00
00
ENDCHAR
STARTCHAR char85
ENCODING 85
SWIDTH 700 0
DWIDTH 7 0
BBX 7 11 0 -2
BITMAP
00
00
00
48
48
48
48
48
78
00
00
ENDCHAR
STARTCHAR char86
ENCODING 86
SWIDTH 700 0
DWIDTH 7 0
BBX 7 11 0 -2
BITMAP
00
00
00
48
48
48
58
70
60
00
00
ENDCHAR
STARTCHAR char87
ENCODING 87
SWIDTH 700 0
DWIDTH 7 0
BBX 7 11 0 -2
BITMAP
00
00
00
44
44
44
54
7C
6C
00
00
ENDCHAR
STARTCHAR char88
ENCODING 88
SWIDTH 700 0
DWIDTH 7 0
BBX 7 11 0 -2
BITMAP
00
00
00
48
48
30
30
48
48
00
00
ENDCHAR
STARTCHAR char89
ENCODING 89
SWIDTH 700 0
DWIDTH 7 0
BBX 7 11 0 -2
BITMAP
00
00
00
44
44
38
10
10
10
00
00
ENDCHAR
STARTCHAR char90
ENCODING 90
SWIDTH 700 0
DWIDTH 7 0
BBX 7 11 0 -2
BITMAP
00
00
00
78
18
10
20
60
78
00
00
ENDCHAR
STARTCHAR char91
ENCODING 91
SWIDTH 700 0
DWIDTH 7 0
BBX 7 11 0 -2
BITMAP
00
00
7C
50
50
50
50
50
50
7C
00
ENDCHAR
STARTCHAR char92
ENCODING 92
SWIDTH 700 0
DWIDTH 7 0
BBX 7 11 0 -2
BITMAP
00
00
40
40
20
20
10
10
08
08
00
ENDCHAR
STARTCHAR char93
ENCODING 93
SWIDTH 700 0
DWIDTH 7 0
BBX 7 11 0 -2
BITMAP
00
00
7C
14
14
14
14
14
14
7C
00
ENDCHAR
STARTCHAR char94
ENCODING 94
SWIDTH 700 0
DWIDTH 7 0
BBX 7 11 0 -2
BITMAP
00
00
00
10
38
6C
00
00
00
00
00
ENDCHAR
STARTCHAR char95
ENCODING 95
SWIDTH 700 0
DWIDTH 7 0
BBX 7 11 0 -2
BITMAP
00
00
00
00
00
00
00
00
00
7C
00
ENDCHAR
STARTCHAR char96
ENCODING 96
SWIDTH 700 0
DWIDTH 7 0
BBX 7 11 0 -2
BITMAP
00
00
30
10
00
00
00
00
00
00
00
ENDCHAR
STARTCHAR char97
ENCODING 97
SWIDTH 700 0
DWIDTH 7 0
BBX 7 11 0 -2
BITMAP
00
00
00
00
38
08
78
48
78
00
00
ENDCHAR
STARTCHAR char98
ENCODING 98
SWIDTH 700 0
DWIDTH 7 0
BBX 7 11 0 -2
BITMAP
00
00
40
40
78
48
48
48
78
00
00
ENDCHAR
STARTCHAR char99
ENCODING 99
SWIDTH 700 0
DWIDTH 7 0
BBX 7 11 0 -2
BITMAP
00
00
00
00
38
40
40
40
78
00
00
ENDCHAR
STARTCHAR char100
ENCODING 100
SWIDTH 700 0
DWIDTH 7 0
BBX 7 11 0 -2
BITMAP
00
00
08
08
78
48
48
48
78
00
00
ENDCHAR
STARTCHAR char101
ENCODING 101
SWIDTH 700 0
DWIDTH 7 0
BBX 7 11 0 -2
BITMAP
00
00
00
00
78
48
78
40
78
00
00
ENDCHAR
STARTCHAR char102
ENCODING 102
SWIDTH 700 0
DWIDTH 7 0
BBX 7 11 0 -2
BITMAP
00
00
38
20
70
20
20
20
20
00
00
ENDCHAR
STARTCHAR char103
ENCODING 103
SWIDTH 700 0
DWIDTH 7 0
BBX 7 11 0 -2
BITMAP
00
00
00
00
78
48
48
78
08
78
00
ENDCHAR
STARTCHAR char104
ENCODING 104
SWIDTH 700 0
DWIDTH 7 0
BBX 7 11 0 -2
BITMAP
00
00
40
40
78
48
48
48
48
00
00
ENDCHAR
STARTCHAR char105
ENCODING 105
SWIDTH 700 0
DWIDTH 7 0
BBX 7 11 0 -2
BITMAP
00
00
10
00
30
10
10
10
38
00
00
ENDCHAR
STARTCHAR char106
ENCODING 106
SWIDTH 700 0
DWIDTH 7 0
BBX 7 11 0 -2
BITMAP
00
00
10
00
30
10
10
10
50
70
00
ENDCHAR
STARTCHAR char107
ENCODING 107
SWIDTH 700 0
DWIDTH 7 0
BBX 7 11 0 -2
BITMAP
00
00
40
40
48
48
70
48
48
00
00
ENDCHAR
STARTCHAR char108
ENCODING 108
SWIDTH 700 0
DWIDTH 7 0
BBX 7 11 0 -2
BITMAP
00
00
60
20
20
20
20
20
30
00
00
ENDCHAR
STARTCHAR char109
ENCODING 109
SWIDTH 700 0
DWIDTH 7 0
BBX 7 11 0 -2
BITMAP
00
00
00
00
7C
54
54
44
44
00
00
ENDCHAR
STARTCHAR char110
ENCODING 110
SWIDTH 700 0
DWIDTH 7 0
BBX 7 11 0 -2
BITMAP
00
00
00
00
78
48
48
48
48
00
00
ENDCHAR
STARTCHAR char111
ENCODING 111
SWIDTH 700 0
DWIDTH 7 0
BBX 7 11 0 -2
BITMAP
00
00
00
00
78
48
48
48
78
00
00
ENDCHAR
STARTCHAR char112
ENCODING 112
SWIDTH 700 0
DWIDTH 7 0
BBX 7 11 0 -2
BITMAP
00
00
00
00
78
48
48
78
40
40
00
ENDCHAR
STARTCHAR char113
ENCODING 113
SWIDTH 700 0
DWIDTH 7 0
BBX 7 11 0 -2
BITMAP
00
00
00
00
78
48
48
78
08
08
00
ENDCHAR
STARTCHAR char114
ENCODING 114
SWIDTH 700 0
DWIDTH 7 0
BBX 7 11 0 -2
BITMAP
00
00
00
00
78
48
40
40
40
00
00
ENDCHAR
STARTCHAR char115
ENCODING 115
SWIDTH 700 0
DWIDTH 7 0
BBX 7 11 0 -2
BITMAP
00
00
00
00
78
40
78
08
78
00
00
ENDCHAR
STARTCHAR char116
ENCODING 116
SWIDTH 700 0
DWIDTH 7 0
BBX 7 11 0 -2
BITMAP
00
00
20
20
38
20
20
28
38
00
00
ENDCHAR
STARTCHAR char117
ENCODING 117
SWIDTH 700 0
DWIDTH 7 0
BBX 7 11 0 -2
BITMAP
00
00
00
00
48
48
48
48
78
00
00
ENDCHAR
STARTCHAR char118
ENCODING 118
SWIDTH 700 0
DWIDTH 7 0
BBX 7 11 0 -2
BITMAP
00
00
00
00
48
48
48
78
30
00
00
ENDCHAR
STARTCHAR char119
ENCODING 119
SWIDTH 700 0
DWIDTH 7 0
BBX 7 11 0 -2
BITMAP
00
00
00
00
44
44
54
54
7C
00
00
ENDCHAR
STARTCHAR char120
ENCODING 120
SWIDTH 700 0
DWIDTH 7 0
BBX 7 11 0 -2
BITMAP
00
00
00
00
48
48
30
48
48
00
00
ENDCHAR
STARTCHAR char121
ENCODING 121
SWIDTH 700 0
DWIDTH 7 0
BBX 7 11 0 -2
BITMAP
00
00
00
00
48
48
48
78
08
78
00
ENDCHAR
STARTCHAR char122
ENCODING 122
SWIDTH 700 0
DWIDTH 7 0
BBX 7 11 0 -2
BITMAP
00
00
00
00
78
08
30
40
78
00
00
ENDCHAR
STARTCHAR char123
ENCODING 123
SWIDTH 700 0
DWIDTH 7 0
BBX 7 11 0 -2
BITMAP
00
00
18
10
10
30
10
10
10
18
00
ENDCHAR
STARTCHAR char124
ENCODING 124
SWIDTH 700 0
DWIDTH 7 0
BBX 7 11 0 -2
BITMAP
00
00
00
10
10
10
10
10
10
10
00
ENDCHAR
STARTCHAR char125
ENCODING 125
SWIDTH 700 0
DWIDTH 7 0
BBX 7 11 0 -2
BITMAP
00
00
60
20
20
30
20
20
20
60
00
ENDCHAR
STARTCHAR char126
ENCODING 126
SWIDTH 700 0
DWIDTH 7 0
BBX 7 11 0 -2
BITMAP
00
00
00
00
00
74
5C
00
00
00
00
ENDCHAR
STARTCHAR char128
ENCODING 128
SWIDTH 700 0
DWIDTH 7 0
BBX 7 11 0 -2
BITMAP
00
00
00
00
00
00
00
00
00
00
00
ENDCHAR
STARTCHAR char33
ENCODING 161
SWIDTH 700 0
DWIDTH 7 0
BBX 7 11 0 -2
BITMAP
00
00
00
08
00
08
08
08
08
08
00
ENDCHAR
STARTCHAR char99
ENCODING 162
SWIDTH 700 0
DWIDTH 7 0
BBX 7 11 0 -2
BITMAP
00
00
00
08
38
54
50
64
38
20
00
ENDCHAR
STARTCHAR char163
ENCODING 163
SWIDTH 700 0
DWIDTH 7 0
BBX 7 11 0 -2
BITMAP
00
00
00
1C
20
20
78
20
7C
00
00
ENDCHAR
STARTCHAR char164
ENCODING 164
SWIDTH 700 0
DWIDTH 7 0
BBX 7 11 0 -2
BITMAP
00
00
00
84
78
48
48
78
84
00
00
ENDCHAR
STARTCHAR char165
ENCODING 165
SWIDTH 700 0
DWIDTH 7 0
BBX 7 11 0 -2
BITMAP
00
00
00
44
28
10
38
10
38
10
00
ENDCHAR
STARTCHAR char166
ENCODING 166
SWIDTH 700 0
DWIDTH 7 0
BBX 7 11 0 -2
BITMAP
00
00
00
10
10
10
10
10
10
10
00
ENDCHAR
STARTCHAR char167
ENCODING 167
SWIDTH 700 0
DWIDTH 7 0
BBX 7 11 0 -2
BITMAP
00
00
00
00
38
20
50
28
10
70
00
ENDCHAR
STARTCHAR char168
ENCODING 168
SWIDTH 700 0
DWIDTH 7 0
BBX 7 11 0 -2
BITMAP
00
00
00
24
00
00
00
00
00
00
00
ENDCHAR
STARTCHAR char169
ENCODING 169
SWIDTH 700 0
DWIDTH 7 0
BBX 7 11 0 -2
BITMAP
00
00
38
44
9A
A2
9A
44
38
00
00
ENDCHAR
STARTCHAR char170
ENCODING 170
SWIDTH 700 0
DWIDTH 7 0
BBX 7 11 0 -2
BITMAP
00
00
00
30
10
70
50
68
00
00
00
ENDCHAR
STARTCHAR char187
ENCODING 171
SWIDTH 700 0
DWIDTH 7 0
BBX 7 11 0 -2
BITMAP
00
00
00
00
00
24
48
24
00
00
00
ENDCHAR
STARTCHAR char172
ENCODING 172
SWIDTH 700 0
DWIDTH 7 0
BBX 7 11 0 -2
BITMAP
00
00
00
00
00
00
7C
04
04
00
00
ENDCHAR
STARTCHAR char169
ENCODING 174
SWIDTH 700 0
DWIDTH 7 0
BBX 7 11 0 -2
BITMAP
00
00
38
7C
AA
B2
AA
44
38
00
00
ENDCHAR
STARTCHAR char175
ENCODING 175
SWIDTH 700 0
DWIDTH 7 0
BBX 7 11 0 -2
BITMAP
00
00
00
38
00
00
00
00
00
00
00
ENDCHAR
STARTCHAR char176
ENCODING 176
SWIDTH 700 0
DWIDTH 7 0
BBX 7 11 0 -2
BITMAP
00
00
00
20
50
20
00
00
00
00
00
ENDCHAR
STARTCHAR char177
ENCODING 177
SWIDTH 700 0
DWIDTH 7 0
BBX 7 11 0 -2
BITMAP
00
00
00
10
38
10
00
38
00
00
00
ENDCHAR
STARTCHAR char178
ENCODING 178
SWIDTH 700 0
DWIDTH 7 0
BBX 7 11 0 -2
BITMAP
00
00
30
48
10
20
78
00
00
00
00
ENDCHAR
STARTCHAR char179
ENCODING 179
SWIDTH 700 0
DWIDTH 7 0
BBX 7 11 0 -2
BITMAP
00
00
70
10
60
10
70
00
00
00
00
ENDCHAR
STARTCHAR char180
ENCODING 180
SWIDTH 700 0
DWIDTH 7 0
BBX 7 11 0 -2
BITMAP
00
10
20
00
00
00
00
00
00
00
00
ENDCHAR
STARTCHAR char181
ENCODING 181
SWIDTH 700 0
DWIDTH 7 0
BBX 7 11 0 -2
BITMAP
00
00
00
00
48
48
48
58
68
40
40
ENDCHAR
STARTCHAR char182
ENCODING 182
SWIDTH 700 0
DWIDTH 7 0
BBX 7 11 0 -2
BITMAP
00
00
00
78
E8
E8
68
28
28
28
00
ENDCHAR
STARTCHAR char183
ENCODING 183
SWIDTH 700 0
DWIDTH 7 0
BBX 7 11 0 -2
BITMAP
00
00
00
00
00
00
18
18
00
00
00
ENDCHAR
STARTCHAR char184
ENCODING 184
SWIDTH 700 0
DWIDTH 7 0
BBX 7 11 0 -2
BITMAP
00
00
00
00
00
00
10
08
38
00
00
ENDCHAR
STARTCHAR char185
ENCODING 185
SWIDTH 700 0
DWIDTH 7 0
BBX 7 11 0 -2
BITMAP
00
00
00
20
60
20
20
20
00
00
00
ENDCHAR
STARTCHAR char186
ENCODING 186
SWIDTH 700 0
DWIDTH 7 0
BBX 7 11 0 -2
BITMAP
00
00
00
30
48
48
30
00
00
00
00
ENDCHAR
STARTCHAR char187
ENCODING 187
SWIDTH 700 0
DWIDTH 7 0
BBX 7 11 0 -2
BITMAP
00
00
00
00
00
48
24
48
00
00
00
ENDCHAR
STARTCHAR char179
ENCODING 188
SWIDTH 700 0
DWIDTH 7 0
BBX 7 11 0 -2
BITMAP
00
00
40
C0
40
48
18
28
3C
08
00
ENDCHAR
STARTCHAR char189
ENCODING 189
SWIDTH 700 0
DWIDTH 7 0
BBX 7 11 0 -2
BITMAP
00
00
40
C0
40
58
04
08
1C
00
00
ENDCHAR
STARTCHAR char179
ENCODING 190
SWIDTH 700 0
DWIDTH 7 0
BBX 7 11 0 -2
BITMAP
00
00
C0
20
40
28
D8
28
3C
08
00
ENDCHAR
STARTCHAR char63
ENCODING 191
SWIDTH 700 0
DWIDTH 7 0
BBX 7 11 0 -2
BITMAP
00
00
00
10
00
10
70
40
48
78
00
ENDCHAR
STARTCHAR char196
ENCODING 192
SWIDTH 700 0
DWIDTH 7 0
BBX 7 11 0 -2
BITMAP
00
20
10
38
48
48
48
78
48
00
00
ENDCHAR
STARTCHAR char196
ENCODING 193
SWIDTH 700 0
DWIDTH 7 0
BBX 7 11 0 -2
BITMAP
00
08
10
38
48
48
48
78
48
00
00
ENDCHAR
STARTCHAR char196
ENCODING 194
SWIDTH 700 0
DWIDTH 7 0
BBX 7 11 0 -2
BITMAP
00
30
48
30
48
48
48
78
48
00
00
ENDCHAR
STARTCHAR char196
ENCODING 195
SWIDTH 700 0
DWIDTH 7 0
BBX 7 11 0 -2
BITMAP
00
28
50
38
48
48
48
78
48
00
00
ENDCHAR
STARTCHAR char196
ENCODING 196
SWIDTH 700 0
DWIDTH 7 0
BBX 7 11 0 -2
BITMAP
00
48
00
38
48
48
48
78
48
00
00
ENDCHAR
STARTCHAR char197
ENCODING 197
SWIDTH 700 0
DWIDTH 7 0
BBX 7 11 0 -2
BITMAP
10
28
10
38
48
48
48
78
48
00
00
ENDCHAR
STARTCHAR char65
ENCODING 198
SWIDTH 700 0
DWIDTH 7 0
BBX 7 11 0 -2
BITMAP
00
00
00
7E
90
9C
90
F0
9E
00
00
ENDCHAR
STARTCHAR char67
ENCODING 199
SWIDTH 700 0
DWIDTH 7 0
BBX 7 11 0 -2
BITMAP
00
00
00
38
40
40
40
40
78
10
30
ENDCHAR
STARTCHAR char69
ENCODING 200
SWIDTH 700 0
DWIDTH 7 0
BBX 7 11 0 -2
BITMAP
00
20
10
78
40
70
40
40
78
00
00
ENDCHAR
STARTCHAR char69
ENCODING 201
SWIDTH 700 0
DWIDTH 7 0
BBX 7 11 0 -2
BITMAP
00
10
20
78
40
70
40
40
78
00
00
ENDCHAR
STARTCHAR char69
ENCODING 202
SWIDTH 700 0
DWIDTH 7 0
BBX 7 11 0 -2
BITMAP
00
30
48
38
40
40
70
40
78
00
00
ENDCHAR
STARTCHAR char69
ENCODING 203
SWIDTH 700 0
DWIDTH 7 0
BBX 7 11 0 -2
BITMAP
00
48
00
78
40
70
40
40
78
00
00
ENDCHAR
STARTCHAR char73
ENCODING 204
SWIDTH 700 0
DWIDTH 7 0
BBX 7 11 0 -2
BITMAP
00
20
10
38
10
10
10
10
38
00
00
ENDCHAR
STARTCHAR char73
ENCODING 205
SWIDTH 700 0
DWIDTH 7 0
BBX 7 11 0 -2
BITMAP
00
08
10
38
10
10
10
10
38
00
00
ENDCHAR
STARTCHAR char73
ENCODING 206
SWIDTH 700 0
DWIDTH 7 0
BBX 7 11 0 -2
BITMAP
00
10
28
00
38
10
10
10
38
00
00
ENDCHAR
STARTCHAR char73
ENCODING 207
SWIDTH 700 0
DWIDTH 7 0
BBX 7 11 0 -2
BITMAP
00
28
00
38
10
10
10
10
38
00
00
ENDCHAR
STARTCHAR char68
ENCODING 208
SWIDTH 700 0
DWIDTH 7 0
BBX 7 11 0 -2
BITMAP
00
00
00
78
24
74
24
24
78
00
00
ENDCHAR
STARTCHAR char110
ENCODING 209
SWIDTH 700 0
DWIDTH 7 0
BBX 7 11 0 -2
BITMAP
00
28
50
48
48
68
78
58
48
00
00
ENDCHAR
STARTCHAR char214
ENCODING 210
SWIDTH 700 0
DWIDTH 7 0
BBX 7 11 0 -2
BITMAP
00
20
10
78
48
48
48
48
78
00
00
ENDCHAR
STARTCHAR char214
ENCODING 211
SWIDTH 700 0
DWIDTH 7 0
BBX 7 11 0 -2
BITMAP
00
10
20
78
48
48
48
48
78
00
00
ENDCHAR
STARTCHAR char214
ENCODING 212
SWIDTH 700 0
DWIDTH 7 0
BBX 7 11 0 -2
BITMAP
00
30
48
30
48
48
48
48
78
00
00
ENDCHAR
STARTCHAR char214
ENCODING 213
SWIDTH 700 0
DWIDTH 7 0
BBX 7 11 0 -2
BITMAP
00
28
50
38
48
48
48
48
78
00
00
ENDCHAR
STARTCHAR char214
ENCODING 214
SWIDTH 700 0
DWIDTH 7 0
BBX 7 11 0 -2
BITMAP
00
48
00
78
48
48
48
48
78
00
00
ENDCHAR
STARTCHAR char215
ENCODING 215
SWIDTH 700 0
DWIDTH 7 0
BBX 7 11 0 -2
BITMAP
00
00
00
00
28
10
28
00
00
00
00
ENDCHAR
STARTCHAR char248
ENCODING 216
SWIDTH 700 0
DWIDTH 7 0
BBX 7 11 0 -2
BITMAP
00
00
08
78
58
58
68
68
78
40
00
ENDCHAR
STARTCHAR char85
ENCODING 217
SWIDTH 700 0
DWIDTH 7 0
BBX 7 11 0 -2
BITMAP
00
20
10
48
48
48
48
48
78
00
00
ENDCHAR
STARTCHAR char85
ENCODING 218
SWIDTH 700 0
DWIDTH 7 0
BBX 7 11 0 -2
BITMAP
00
10
20
48
48
48
48
48
78
00
00
ENDCHAR
STARTCHAR char85
ENCODING 219
SWIDTH 700 0
DWIDTH 7 0
BBX 7 11 0 -2
BITMAP
00
30
48
00
48
48
48
48
78
00
00
ENDCHAR
STARTCHAR char85
ENCODING 220
SWIDTH 700 0
DWIDTH 7 0
BBX 7 11 0 -2
BITMAP
00
48
00
48
48
48
48
48
78
00
00
ENDCHAR
STARTCHAR char89
ENCODING 221
SWIDTH 700 0
DWIDTH 7 0
BBX 7 11 0 -2
BITMAP
00
08
10
44
44
38
10
10
10
00
00
ENDCHAR
STARTCHAR char112
ENCODING 222
SWIDTH 700 0
DWIDTH 7 0
BBX 7 11 0 -2
BITMAP
00
00
40
40
78
48
48
78
40
40
00
ENDCHAR
STARTCHAR char223
ENCODING 223
SWIDTH 700 0
DWIDTH 7 0
BBX 7 11 0 -2
BITMAP
00
00
70
50
50
48
48
48
58
40
00
ENDCHAR
STARTCHAR char228
ENCODING 224
SWIDTH 700 0
DWIDTH 7 0
BBX 7 11 0 -2
BITMAP
00
00
20
10
38
08
78
48
78
00
00
ENDCHAR
STARTCHAR char228
ENCODING 225
SWIDTH 700 0
DWIDTH 7 0
BBX 7 11 0 -2
BITMAP
00
00
08
10
38
08
78
48
78
00
00
ENDCHAR
STARTCHAR char228
ENCODING 226
SWIDTH 700 0
DWIDTH 7 0
BBX 7 11 0 -2
BITMAP
00
10
28
00
38
08
78
48
78
00
00
ENDCHAR
STARTCHAR char228
ENCODING 227
SWIDTH 700 0
DWIDTH 7 0
BBX 7 11 0 -2
BITMAP
00
28
50
00
38
08
78
48
78
00
00
ENDCHAR
STARTCHAR char228
ENCODING 228
SWIDTH 700 0
DWIDTH 7 0
BBX 7 11 0 -2
BITMAP
00
00
28
00
38
08
78
48
78
00
00
ENDCHAR
STARTCHAR char229
ENCODING 229
SWIDTH 700 0
DWIDTH 7 0
BBX 7 11 0 -2
BITMAP
00
10
28
10
38
08
78
48
78
00
00
ENDCHAR
STARTCHAR char97
ENCODING 230
SWIDTH 700 0
DWIDTH 7 0
BBX 7 11 0 -2
BITMAP
00
00
00
00
7E
12
FE
90
FE
00
00
ENDCHAR
STARTCHAR char99
ENCODING 231
SWIDTH 700 0
DWIDTH 7 0
BBX 7 11 0 -2
BITMAP
00
00
00
00
38
40
40
40
78
10
30
ENDCHAR
STARTCHAR char101
ENCODING 232
SWIDTH 700 0
DWIDTH 7 0
BBX 7 11 0 -2
BITMAP
00
00
20
10
78
48
78
40
78
00
00
ENDCHAR
STARTCHAR char101
ENCODING 233
SWIDTH 700 0
DWIDTH 7 0
BBX 7 11 0 -2
BITMAP
00
00
10
20
78
48
78
40
78
00
00
ENDCHAR
STARTCHAR char101
ENCODING 234
SWIDTH 700 0
DWIDTH 7 0
BBX 7 11 0 -2
BITMAP
00
30
48
00
78
48
78
40
78
00
00
ENDCHAR
STARTCHAR char101
ENCODING 235
SWIDTH 700 0
DWIDTH 7 0
BBX 7 11 0 -2
BITMAP
00
00
48
00
78
48
78
40
78
00
00
ENDCHAR
STARTCHAR char105
ENCODING 236
SWIDTH 700 0
DWIDTH 7 0
BBX 7 11 0 -2
BITMAP
00
20
10
00
30
10
10
10
38
00
00
ENDCHAR
STARTCHAR char105
ENCODING 237
SWIDTH 700 0
DWIDTH 7 0
BBX 7 11 0 -2
BITMAP
00
08
10
00
30
10
10
10
38
00
00
ENDCHAR
STARTCHAR char105
ENCODING 238
SWIDTH 700 0
DWIDTH 7 0
BBX 7 11 0 -2
BITMAP
00
10
28
00
30
10
10
10
38
00
00
ENDCHAR
STARTCHAR char105
ENCODING 239
SWIDTH 700 0
DWIDTH 7 0
BBX 7 11 0 -2
BITMAP
00
00
28
00
30
10
10
10
38
00
00
ENDCHAR
STARTCHAR char240
ENCODING 240
SWIDTH 700 0
DWIDTH 7 0
BBX 7 11 0 -2
BITMAP
00
00
10
0C
18
08
78
48
78
00
00
ENDCHAR
STARTCHAR char110
ENCODING 241
SWIDTH 700 0
DWIDTH 7 0
BBX 7 11 0 -2
BITMAP
00
28
50
00
78
48
48
48
48
00
00
ENDCHAR
STARTCHAR char246
ENCODING 242
SWIDTH 700 0
DWIDTH 7 0
BBX 7 11 0 -2
BITMAP
00
00
20
10
78
48
48
48
78
00
00
ENDCHAR
STARTCHAR char214
ENCODING 243
SWIDTH 700 0
DWIDTH 7 0
BBX 7 11 0 -2
BITMAP
00
00
10
20
78
48
48
48
78
00
00
ENDCHAR
STARTCHAR char214
ENCODING 244
SWIDTH 700 0
DWIDTH 7 0
BBX 7 11 0 -2
BITMAP
00
30
48
00
78
48
48
48
78
00
00
ENDCHAR
STARTCHAR char214
ENCODING 245
SWIDTH 700 0
DWIDTH 7 0
BBX 7 11 0 -2
BITMAP
00
28
50
00
78
48
48
48
78
00
00
ENDCHAR
STARTCHAR char246
ENCODING 246
SWIDTH 700 0
DWIDTH 7 0
BBX 7 11 0 -2
BITMAP
00
00
48
00
78
48
48
48
78
00
00
ENDCHAR
STARTCHAR char247
ENCODING 247
SWIDTH 700 0
DWIDTH 7 0
BBX 7 11 0 -2
BITMAP
00
00
00
10
00
7C
00
10
00
00
00
ENDCHAR
STARTCHAR char248
ENCODING 248
SWIDTH 700 0
DWIDTH 7 0
BBX 7 11 0 -2
BITMAP
00
00
00
08
78
58
48
68
78
40
00
ENDCHAR
STARTCHAR char117
ENCODING 249
SWIDTH 700 0
DWIDTH 7 0
BBX 7 11 0 -2
BITMAP
00
00
20
10
48
48
48
48
78
00
00
ENDCHAR
STARTCHAR char117
ENCODING 250
SWIDTH 700 0
DWIDTH 7 0
BBX 7 11 0 -2
BITMAP
00
00
10
20
48
48
48
48
78
00
00
ENDCHAR
STARTCHAR char117
ENCODING 251
SWIDTH 700 0
DWIDTH 7 0
BBX 7 11 0 -2
BITMAP
00
30
48
00
48
48
48
48
78
00
00
ENDCHAR
STARTCHAR char117
ENCODING 252
SWIDTH 700 0
DWIDTH 7 0
BBX 7 11 0 -2
BITMAP
00
00
48
00
48
48
48
48
78
00
00
ENDCHAR
STARTCHAR char121
ENCODING 253
SWIDTH 700 0
DWIDTH 7 0
BBX 7 11 0 -2
BITMAP
00
00
10
20
48
48
48
78
08
78
00
ENDCHAR
STARTCHAR char112
ENCODING 254
SWIDTH 700 0
DWIDTH 7 0
BBX 7 11 0 -2
BITMAP
00
00
00
40
40
78
48
78
40
40
00
ENDCHAR
STARTCHAR char121
ENCODING 255
SWIDTH 700 0
DWIDTH 7 0
BBX 7 11 0 -2
BITMAP
00
00
48
00
48
48
48
78
08
78
00
ENDCHAR
STARTCHAR char256
ENCODING 256
SWIDTH 700 0
DWIDTH 7 0
BBX 7 11 0 -2
BITMAP
00
38
00
38
48
48
48
78
48
00
00
ENDCHAR
STARTCHAR char257
ENCODING 257
SWIDTH 700 0
DWIDTH 7 0
BBX 7 11 0 -2
BITMAP
00
00
38
00
38
08
78
48
78
00
00
ENDCHAR
STARTCHAR char258
ENCODING 258
SWIDTH 700 0
DWIDTH 7 0
BBX 7 11 0 -2
BITMAP
00
48
30
38
48
48
48
78
48
00
00
ENDCHAR
STARTCHAR char259
ENCODING 259
SWIDTH 700 0
DWIDTH 7 0
BBX 7 11 0 -2
BITMAP
00
28
10
00
38
08
78
48
78
00
00
ENDCHAR
STARTCHAR char260
ENCODING 260
SWIDTH 700 0
DWIDTH 7 0
BBX 7 11 0 -2
BITMAP
00
00
00
38
48
48
48
78
48
10
18
ENDCHAR
STARTCHAR char261
ENCODING 261
SWIDTH 700 0
DWIDTH 7 0
BBX 7 11 0 -2
BITMAP
00
00
00
00
38
08
78
48
78
10
18
ENDCHAR
STARTCHAR char262
ENCODING 262
SWIDTH 700 0
DWIDTH 7 0
BBX 7 11 0 -2
BITMAP
00
08
10
38
40
40
40
40
78
00
00
ENDCHAR
STARTCHAR char263
ENCODING 263
SWIDTH 700 0
DWIDTH 7 0
BBX 7 11 0 -2
BITMAP
00
00
08
10
38
40
40
40
78
00
00
ENDCHAR
STARTCHAR char264
ENCODING 264
SWIDTH 700 0
DWIDTH 7 0
BBX 7 11 0 -2
BITMAP
00
10
28
38
40
40
40
40
78
00
00
ENDCHAR
STARTCHAR char265
ENCODING 265
SWIDTH 700 0
DWIDTH 7 0
BBX 7 11 0 -2
BITMAP
00
10
28
00
38
40
40
40
78
00
00
ENDCHAR
STARTCHAR char266
ENCODING 266
SWIDTH 700 0
DWIDTH 7 0
BBX 7 11 0 -2
BITMAP
00
10
00
38
40
40
40
40
78
00
00
ENDCHAR
STARTCHAR char267
ENCODING 267
SWIDTH 700 0
DWIDTH 7 0
BBX 7 11 0 -2
BITMAP
00
00
10
00
38
40
40
40
78
00
00
ENDCHAR
STARTCHAR char268
ENCODING 268
SWIDTH 700 0
DWIDTH 7 0
BBX 7 11 0 -2
BITMAP
00
28
10
38
40
40
40
40
78
00
00
ENDCHAR
STARTCHAR char269
ENCODING 269
SWIDTH 700 0
DWIDTH 7 0
BBX 7 11 0 -2
BITMAP
00
00
28
10
38
40
40
40
78
00
00
ENDCHAR
STARTCHAR char270
ENCODING 270
SWIDTH 700 0
DWIDTH 7 0
BBX 7 11 0 -2
BITMAP
00
28
10
78
24
24
24
24
78
00
00
ENDCHAR
STARTCHAR char271
ENCODING 271
SWIDTH 700 0
DWIDTH 7 0
BBX 7 11 0 -2
BITMAP
00
00
0A
0A
08
78
48
48
78
00
00
ENDCHAR
STARTCHAR char272
ENCODING 272
SWIDTH 700 0
DWIDTH 7 0
BBX 7 11 0 -2
BITMAP
00
00
00
78
24
74
24
24
78
00
00
ENDCHAR
STARTCHAR char273
ENCODING 273
SWIDTH 700 0
DWIDTH 7 0
BBX 7 11 0 -2
BITMAP
00
00
08
1C
08
78
48
48
78
00
00
ENDCHAR
STARTCHAR char274
ENCODING 274
SWIDTH 700 0
DWIDTH 7 0
BBX 7 11 0 -2
BITMAP
00
78
00
78
40
70
40
40
78
00
00
ENDCHAR
STARTCHAR char275
ENCODING 275
SWIDTH 700 0
DWIDTH 7 0
BBX 7 11 0 -2
BITMAP
00
00
78
00
78
48
78
40
78
00
00
ENDCHAR
STARTCHAR char276
ENCODING 276
SWIDTH 700 0
DWIDTH 7 0
BBX 7 11 0 -2
BITMAP
00
48
30
78
40
70
40
40
78
00
00
ENDCHAR
STARTCHAR char277
ENCODING 277
SWIDTH 700 0
DWIDTH 7 0
BBX 7 11 0 -2
BITMAP
00
48
30
00
78
48
78
40
78
00
00
ENDCHAR
STARTCHAR char278
ENCODING 278
SWIDTH 700 0
DWIDTH 7 0
BBX 7 11 0 -2
BITMAP
00
10
00
78
40
70
40
40
78
00
00
ENDCHAR
STARTCHAR char279
ENCODING 279
SWIDTH 700 0
DWIDTH 7 0
BBX 7 11 0 -2
BITMAP
00
00
10
00
78
48
78
40
78
00
00
ENDCHAR
STARTCHAR char280
ENCODING 280
SWIDTH 700 0
DWIDTH 7 0
BBX 7 11 0 -2
BITMAP
00
00
00
78
40
70
40
40
78
10
18
ENDCHAR
STARTCHAR char281
ENCODING 281
SWIDTH 700 0
DWIDTH 7 0
BBX 7 11 0 -2
BITMAP
00
00
00
00
78
48
78
40
78
10
18
ENDCHAR
STARTCHAR char282
ENCODING 282
SWIDTH 700 0
DWIDTH 7 0
BBX 7 11 0 -2
BITMAP
00
50
20
78
40
70
40
40
78
00
00
ENDCHAR
STARTCHAR char283
ENCODING 283
SWIDTH 700 0
DWIDTH 7 0
BBX 7 11 0 -2
BITMAP
00
00
50
20
78
48
78
40
78
00
00
ENDCHAR
STARTCHAR char284
ENCODING 284
SWIDTH 700 0
DWIDTH 7 0
BBX 7 11 0 -2
BITMAP
00
10
28
38
40
40
58
48
78
00
00
ENDCHAR
STARTCHAR char285
ENCODING 285
SWIDTH 700 0
DWIDTH 7 0
BBX 7 11 0 -2
BITMAP
00
10
28
00
78
48
48
78
08
78
00
ENDCHAR
STARTCHAR char286
ENCODING 286
SWIDTH 700 0
DWIDTH 7 0
BBX 7 11 0 -2
BITMAP
00
48
30
38
40
40
58
48
78
00
00
ENDCHAR
STARTCHAR char287
ENCODING 287
SWIDTH 700 0
DWIDTH 7 0
BBX 7 11 0 -2
BITMAP
00
48
30
00
78
48
48
78
08
78
00
ENDCHAR
STARTCHAR char288
ENCODING 288
SWIDTH 700 0
DWIDTH 7 0
BBX 7 11 0 -2
BITMAP
00
10
00
38
40
40
58
48
78
00
00
ENDCHAR
STARTCHAR char289
ENCODING 289
SWIDTH 700 0
DWIDTH 7 0
BBX 7 11 0 -2
BITMAP
00
00
10
00
78
48
48
78
08
78
00
ENDCHAR
STARTCHAR char290
ENCODING 290
SWIDTH 700 0
DWIDTH 7 0
BBX 7 11 0 -2
BITMAP
00
00
00
38
40
40
58
48
78
10
20
ENDCHAR
STARTCHAR char291
ENCODING 291
SWIDTH 700 0
DWIDTH 7 0
BBX 7 11 0 -2
BITMAP
00
00
08
10
78
48
48
78
08
78
00
ENDCHAR
STARTCHAR char292
ENCODING 292
SWIDTH 700 0
DWIDTH 7 0
BBX 7 11 0 -2
BITMAP
00
30
48
00
48
48
78
48
48
00
00
ENDCHAR
STARTCHAR char293
ENCODING 293
SWIDTH 700 0
DWIDTH 7 0
BBX 7 11 0 -2
BITMAP
00
20
50
40
78
48
48
48
48
00
00
ENDCHAR
STARTCHAR char294
ENCODING 294
SWIDTH 700 0
DWIDTH 7 0
BBX 7 11 0 -2
BITMAP
00
00
00
24
7E
24
3C
24
24
00
00
ENDCHAR
STARTCHAR char295
ENCODING 295
SWIDTH 700 0
DWIDTH 7 0
BBX 7 11 0 -2
BITMAP
00
00
20
78
20
3C
24
24
24
00
00
ENDCHAR
STARTCHAR char296
ENCODING 296
SWIDTH 700 0
DWIDTH 7 0
BBX 7 11 0 -2
BITMAP
00
28
50
38
10
10
10
10
38
00
00
ENDCHAR
STARTCHAR char297
ENCODING 297
SWIDTH 700 0
DWIDTH 7 0
BBX 7 11 0 -2
BITMAP
00
28
50
00
30
10
10
10
38
00
00
ENDCHAR
STARTCHAR char298
ENCODING 298
SWIDTH 700 0
DWIDTH 7 0
BBX 7 11 0 -2
BITMAP
00
38
00
38
10
10
10
10
38
00
00
ENDCHAR
STARTCHAR char299
ENCODING 299
SWIDTH 700 0
DWIDTH 7 0
BBX 7 11 0 -2
BITMAP
00
00
38
00
30
10
10
10
38
00
00
ENDCHAR
STARTCHAR char300
ENCODING 300
SWIDTH 700 0
DWIDTH 7 0
BBX 7 11 0 -2
BITMAP
00
28
10
38
10
10
10
10
38
00
00
ENDCHAR
STARTCHAR char301
ENCODING 301
SWIDTH 700 0
DWIDTH 7 0
BBX 7 11 0 -2
BITMAP
00
28
10
00
30
10
10
10
38
00
00
ENDCHAR
STARTCHAR char302
ENCODING 302
SWIDTH 700 0
DWIDTH 7 0
BBX 7 11 0 -2
BITMAP
00
00
00
38
10
10
10
10
38
10
18
ENDCHAR
STARTCHAR char303
ENCODING 303
SWIDTH 700 0
DWIDTH 7 0
BBX 7 11 0 -2
BITMAP
00
00
10
00
30
10
10
10
38
10
18
ENDCHAR
STARTCHAR char304
ENCODING 304
SWIDTH 700 0
DWIDTH 7 0
BBX 7 11 0 -2
BITMAP
00
10
00
38
10
10
10
10
38
00
00
ENDCHAR
STARTCHAR char305
ENCODING 305
SWIDTH 700 0
DWIDTH 7 0
BBX 7 11 0 -2
BITMAP
00
00
00
00
30
10
10
10
38
00
00
ENDCHAR
STARTCHAR char306
ENCODING 306
SWIDTH 700 0
DWIDTH 7 0
BBX 7 11 0 -2
BITMAP
00
00
00
7C
24
24
24
24
74
1C
00
ENDCHAR
STARTCHAR char307
ENCODING 307
SWIDTH 700 0
DWIDTH 7 0
BBX 7 11 0 -2
BITMAP
00
00
24
00
6C
24
24
24
74
1C
00
ENDCHAR
STARTCHAR char308
ENCODING 308
SWIDTH 700 0
DWIDTH 7 0
BBX 7 11 0 -2
BITMAP
00
10
28
38
08
08
08
48
78
00
00
ENDCHAR
STARTCHAR char309
ENCODING 309
SWIDTH 700 0
DWIDTH 7 0
BBX 7 11 0 -2
BITMAP
00
08
14
00
18
08
08
08
28
38
00
ENDCHAR
STARTCHAR char310
ENCODING 310
SWIDTH 700 0
DWIDTH 7 0
BBX 7 11 0 -2
BITMAP
00
00
00
48
48
48
70
48
48
10
30
ENDCHAR
STARTCHAR char311
ENCODING 311
SWIDTH 700 0
DWIDTH 7 0
BBX 7 11 0 -2
BITMAP
00
00
40
40
48
48
70
48
48
10
30
ENDCHAR
STARTCHAR char312
ENCODING 312
SWIDTH 700 0
DWIDTH 7 0
BBX 7 11 0 -2
BITMAP
00
00
00
00
48
48
70
48
48
00
00
ENDCHAR
STARTCHAR char313
ENCODING 313
SWIDTH 700 0
DWIDTH 7 0
BBX 7 11 0 -2
BITMAP
00
10
20
40
40
40
40
40
78
00
00
ENDCHAR
STARTCHAR char314
ENCODING 314
SWIDTH 700 0
DWIDTH 7 0
BBX 7 11 0 -2
BITMAP
00
08
30
10
10
10
10
10
38
00
00
ENDCHAR
STARTCHAR char315
ENCODING 315
SWIDTH 700 0
DWIDTH 7 0
BBX 7 11 0 -2
BITMAP
00
00
00
40
40
40
40
40
78
10
30
ENDCHAR
STARTCHAR char316
ENCODING 316
SWIDTH 700 0
DWIDTH 7 0
BBX 7 11 0 -2
BITMAP
00
00
30
10
10
10
10
10
38
10
30
ENDCHAR
STARTCHAR char317
ENCODING 317
SWIDTH 700 0
DWIDTH 7 0
BBX 7 11 0 -2
BITMAP
00
00
00
58
50
40
40
40
78
00
00
ENDCHAR
STARTCHAR char318
ENCODING 318
SWIDTH 700 0
DWIDTH 7 0
BBX 7 11 0 -2
BITMAP
00
00
36
14
10
10
10
10
38
00
00
ENDCHAR
STARTCHAR char319
ENCODING 319
SWIDTH 700 0
DWIDTH 7 0
BBX 7 11 0 -2
BITMAP
00
00
00
40
40
50
40
40
78
00
00
ENDCHAR
STARTCHAR char320
ENCODING 320
SWIDTH 700 0
DWIDTH 7 0
BBX 7 11 0 -2
BITMAP
00
00
30
10
10
14
10
10
38
00
00
ENDCHAR
STARTCHAR char321
ENCODING 321
SWIDTH 700 0
DWIDTH 7 0
BBX 7 11 0 -2
BITMAP
00
00
00
20
20
30
60
20
3C
00
00
ENDCHAR
STARTCHAR char322
ENCODING 322
SWIDTH 700 0
DWIDTH 7 0
BBX 7 11 0 -2
BITMAP
00
00
30
10
18
30
10
10
38
00
00
ENDCHAR
STARTCHAR char323
ENCODING 323
SWIDTH 700 0
DWIDTH 7 0
BBX 7 11 0 -2
BITMAP
00
10
20
48
48
68
78
58
48
00
00
ENDCHAR
STARTCHAR char324
ENCODING 324
SWIDTH 700 0
DWIDTH 7 0
BBX 7 11 0 -2
BITMAP
00
00
10
20
78
48
48
48
48
00
00
ENDCHAR
STARTCHAR char325
ENCODING 325
SWIDTH 700 0
DWIDTH 7 0
BBX 7 11 0 -2
BITMAP
00
00
00
48
48
68
78
58
48
10
30
ENDCHAR
STARTCHAR char326
ENCODING 326
SWIDTH 700 0
DWIDTH 7 0
BBX 7 11 0 -2
BITMAP
00
00
00
00
78
48
48
48
48
10
30
ENDCHAR
STARTCHAR char327
ENCODING 327
SWIDTH 700 0
DWIDTH 7 0
BBX 7 11 0 -2
BITMAP
00
28
10
48
48
68
78
58
48
00
00
ENDCHAR
STARTCHAR char328
ENCODING 328
SWIDTH 700 0
DWIDTH 7 0
BBX 7 11 0 -2
BITMAP
00
00
50
20
78
48
48
48
48
00
00
ENDCHAR
STARTCHAR char329
ENCODING 329
SWIDTH 700 0
DWIDTH 7 0
BBX 7 11 0 -2
BITMAP
00
60
40
00
78
48
48
48
48
00
00
ENDCHAR
STARTCHAR char330
ENCODING 330
SWIDTH 700 0
DWIDTH 7 0
BBX 7 11 0 -2
BITMAP
00
00
00
58
68
48
48
48
48
08
38
ENDCHAR
STARTCHAR char331
ENCODING 331
SWIDTH 700 0
DWIDTH 7 0
BBX 7 11 0 -2
BITMAP
00
00
00
00
58
68
48
48
48
08
38
ENDCHAR
STARTCHAR char332
ENCODING 332
SWIDTH 700 0
DWIDTH 7 0
BBX 7 11 0 -2
BITMAP
00
78
00
78
48
48
48
48
78
00
00
ENDCHAR
STARTCHAR char333
ENCODING 333
SWIDTH 700 0
DWIDTH 7 0
BBX 7 11 0 -2
BITMAP
00
00
78
00
78
48
48
48
78
00
00
ENDCHAR
STARTCHAR char334
ENCODING 334
SWIDTH 700 0
DWIDTH 7 0
BBX 7 11 0 -2
BITMAP
00
48
30
78
48
48
48
48
78
00
00
ENDCHAR
STARTCHAR char335
ENCODING 335
SWIDTH 700 0
DWIDTH 7 0
BBX 7 11 0 -2
BITMAP
00
48
30
00
78
48
48
48
78
00
00
ENDCHAR
STARTCHAR char336
ENCODING 336
SWIDTH 700 0
DWIDTH 7 0
BBX 7 11 0 -2
BITMAP
00
28
50
78
48
48
48
48
78
00
00
ENDCHAR
STARTCHAR char337
ENCODING 337
SWIDTH 700 0
DWIDTH 7 0
BBX 7 11 0 -2
BITMAP
00
00
28
50
78
48
48
48
78
00
00
ENDCHAR
STARTCHAR char338
ENCODING 338
SWIDTH 700 0
DWIDTH 7 0
BBX 7 11 0 -2
BITMAP
00
00
00
FE
90
9C
90
90
FE
00
00
ENDCHAR
STARTCHAR char339
ENCODING 339
SWIDTH 700 0
DWIDTH 7 0
BBX 7 11 0 -2
BITMAP
00
00
00
00
FE
92
9E
90
FE
00
00
ENDCHAR
STARTCHAR char340
ENCODING 340
SWIDTH 700 0
DWIDTH 7 0
BBX 7 11 0 -2
BITMAP
00
10
20
78
48
48
70
58
48
00
00
ENDCHAR
STARTCHAR char341
ENCODING 341
SWIDTH 700 0
DWIDTH 7 0
BBX 7 11 0 -2
BITMAP
00
00
10
20
78
48
40
40
40
00
00
ENDCHAR
STARTCHAR char342
ENCODING 342
SWIDTH 700 0
DWIDTH 7 0
BBX 7 11 0 -2
BITMAP
00
00
00
78
48
48
70
48
48
10
30
ENDCHAR
STARTCHAR char343
ENCODING 343
SWIDTH 700 0
DWIDTH 7 0
BBX 7 11 0 -2
BITMAP
00
00
00
00
78
48
40
40
40
20
60
ENDCHAR
STARTCHAR char344
ENCODING 344
SWIDTH 700 0
DWIDTH 7 0
BBX 7 11 0 -2
BITMAP
00
50
20
78
48
48
70
48
48
00
00
ENDCHAR
STARTCHAR char345
ENCODING 345
SWIDTH 700 0
DWIDTH 7 0
BBX 7 11 0 -2
BITMAP
00
00
50
20
78
48
40
40
40
00
00
ENDCHAR
STARTCHAR char346
ENCODING 346
SWIDTH 700 0
DWIDTH 7 0
BBX 7 11 0 -2
BITMAP
00
08
10
38
40
40
78
08
78
00
00
ENDCHAR
STARTCHAR char347
ENCODING 347
SWIDTH 700 0
DWIDTH 7 0
BBX 7 11 0 -2
BITMAP
00
00
10
20
78
40
78
08
78
00
00
ENDCHAR
STARTCHAR char348
ENCODING 348
SWIDTH 700 0
DWIDTH 7 0
BBX 7 11 0 -2
BITMAP
00
10
28
38
40
40
78
08
78
00
00
ENDCHAR
STARTCHAR char349
ENCODING 349
SWIDTH 700 0
DWIDTH 7 0
BBX 7 11 0 -2
BITMAP
00
20
50
00
78
40
78
08
78
00
00
ENDCHAR
STARTCHAR char350
ENCODING 350
SWIDTH 700 0
DWIDTH 7 0
BBX 7 11 0 -2
BITMAP
00
00
00
38
40
40
78
08
78
10
30
ENDCHAR
STARTCHAR char351
ENCODING 351
SWIDTH 700 0
DWIDTH 7 0
BBX 7 11 0 -2
BITMAP
00
00
00
00
78
40
78
08
78
10
30
ENDCHAR
STARTCHAR char352
ENCODING 352
SWIDTH 700 0
DWIDTH 7 0
BBX 7 11 0 -2
BITMAP
00
28
10
38
40
40
78
08
78
00
00
ENDCHAR
STARTCHAR char353
ENCODING 353
SWIDTH 700 0
DWIDTH 7 0
BBX 7 11 0 -2
BITMAP
00
00
28
10
78
40
78
08
78
00
00
ENDCHAR
STARTCHAR char354
ENCODING 354
SWIDTH 700 0
DWIDTH 7 0
BBX 7 11 0 -2
BITMAP
00
00
00
7C
54
10
10
10
10
08
18
ENDCHAR
STARTCHAR char355
ENCODING 355
SWIDTH 700 0
DWIDTH 7 0
BBX 7 11 0 -2
BITMAP
00
00
20
20
38
20
20
28
38
10
30
ENDCHAR
STARTCHAR char356
ENCODING 356
SWIDTH 700 0
DWIDTH 7 0
BBX 7 11 0 -2
BITMAP
00
28
10
7C
54
10
10
10
10
00
00
ENDCHAR
STARTCHAR char357
ENCODING 357
SWIDTH 700 0
DWIDTH 7 0
BBX 7 11 0 -2
BITMAP
00
00
4C
48
70
40
40
50
70
00
00
ENDCHAR
STARTCHAR char358
ENCODING 358
SWIDTH 700 0
DWIDTH 7 0
BBX 7 11 0 -2
BITMAP
00
00
00
7C
54
10
38
10
10
00
00
ENDCHAR
STARTCHAR char359
ENCODING 359
SWIDTH 700 0
DWIDTH 7 0
BBX 7 11 0 -2
BITMAP
00
00
20
70
20
70
20
28
38
00
00
ENDCHAR
STARTCHAR char360
ENCODING 360
SWIDTH 700 0
DWIDTH 7 0
BBX 7 11 0 -2
BITMAP
00
28
50
48
48
48
48
48
78
00
00
ENDCHAR
STARTCHAR char361
ENCODING 361
SWIDTH 700 0
DWIDTH 7 0
BBX 7 11 0 -2
BITMAP
00
00
28
50
48
48
48
48
78
00
00
ENDCHAR
STARTCHAR char362
ENCODING 362
SWIDTH 700 0
DWIDTH 7 0
BBX 7 11 0 -2
BITMAP
00
78
00
48
48
48
48
48
78
00
00
ENDCHAR
STARTCHAR char363
ENCODING 363
SWIDTH 700 0
DWIDTH 7 0
BBX 7 11 0 -2
BITMAP
00
00
78
00
48
48
48
48
78
00
00
ENDCHAR
STARTCHAR char364
ENCODING 364
SWIDTH 700 0
DWIDTH 7 0
BBX 7 11 0 -2
BITMAP
00
48
30
48
48
48
48
48
78
00
00
ENDCHAR
STARTCHAR char365
ENCODING 365
SWIDTH 700 0
DWIDTH 7 0
BBX 7 11 0 -2
BITMAP
00
48
30
00
48
48
48
48
78
00
00
ENDCHAR
STARTCHAR char366
ENCODING 366
SWIDTH 700 0
DWIDTH 7 0
BBX 7 11 0 -2
BITMAP
00
10
28
54
44
44
44
44
7C
00
00
ENDCHAR
STARTCHAR char367
ENCODING 367
SWIDTH 700 0
DWIDTH 7 0
BBX 7 11 0 -2
BITMAP
00
10
28
10
48
48
48
48
78
00
00
ENDCHAR
STARTCHAR char368
ENCODING 368
SWIDTH 700 0
DWIDTH 7 0
BBX 7 11 0 -2
BITMAP
00
14
28
44
44
44
44
44
38
00
00
ENDCHAR
STARTCHAR char369
ENCODING 369
SWIDTH 700 0
DWIDTH 7 0
BBX 7 11 0 -2
BITMAP
00
00
14
28
48
48
48
48
78
00
00
ENDCHAR
STARTCHAR char370
ENCODING 370
SWIDTH 700 0
DWIDTH 7 0
BBX 7 11 0 -2
BITMAP
00
00
00
48
48
48
48
48
78
20
30
ENDCHAR
STARTCHAR char371
ENCODING 371
SWIDTH 700 0
DWIDTH 7 0
BBX 7 11 0 -2
BITMAP
00
00
00
00
48
48
48
48
78
20
30
ENDCHAR
STARTCHAR char372
ENCODING 372
SWIDTH 700 0
DWIDTH 7 0
BBX 7 11 0 -2
BITMAP
00
10
28
44
44
44
54
7C
6C
00
00
ENDCHAR
STARTCHAR char373
ENCODING 373
SWIDTH 700 0
DWIDTH 7 0
BBX 7 11 0 -2
BITMAP
00
00
10
28
44
44
54
54
7C
00
00
ENDCHAR
STARTCHAR char374
ENCODING 374
SWIDTH 700 0
DWIDTH 7 0
BBX 7 11 0 -2
BITMAP
00
10
28
00
44
44
38
10
10
00
00
ENDCHAR
STARTCHAR char375
ENCODING 375
SWIDTH 700 0
DWIDTH 7 0
BBX 7 11 0 -2
BITMAP
00
10
28
00
48
48
48
78
08
78
00
ENDCHAR
STARTCHAR char376
ENCODING 376
SWIDTH 700 0
DWIDTH 7 0
BBX 7 11 0 -2
BITMAP
00
28
00
44
44
38
10
10
10
00
00
ENDCHAR
STARTCHAR char377
ENCODING 377
SWIDTH 700 0
DWIDTH 7 0
BBX 7 11 0 -2
BITMAP
00
08
10
78
18
10
20
60
78
00
00
ENDCHAR
STARTCHAR char378
ENCODING 378
SWIDTH 700 0
DWIDTH 7 0
BBX 7 11 0 -2
BITMAP
00
00
08
10
78
08
30
40
78
00
00
ENDCHAR
STARTCHAR char379
ENCODING 379
SWIDTH 700 0
DWIDTH 7 0
BBX 7 11 0 -2
BITMAP
00
10
00
78
18
10
20
60
78
00
00
ENDCHAR
STARTCHAR char380
ENCODING 380
SWIDTH 700 0
DWIDTH 7 0
BBX 7 11 0 -2
BITMAP
00
00
10
00
78
08
30
40
78
00
00
ENDCHAR
STARTCHAR char381
ENCODING 381
SWIDTH 700 0
DWIDTH 7 0
BBX 7 11 0 -2
BITMAP
00
28
10
78
18
10
20
60
78
00
00
ENDCHAR
STARTCHAR char382
ENCODING 382
SWIDTH 700 0
DWIDTH 7 0
BBX 7 11 0 -2
BITMAP
00
00
28
10
78
08
30
40
78
00
00
ENDCHAR
STARTCHAR char383
ENCODING 383
SWIDTH 700 0
DWIDTH 7 0
BBX 7 11 0 -2
BITMAP
00
00
38
20
60
20
20
20
20
00
00
ENDCHAR
STARTCHAR char500
ENCODING 500
SWIDTH 700 0
DWIDTH 7 0
BBX 7 11 0 -2
BITMAP
00
10
20
38
40
40
58
48
78
00
00
ENDCHAR
STARTCHAR char501
ENCODING 501
SWIDTH 700 0
DWIDTH 7 0
BBX 7 11 0 -2
BITMAP
00
00
08
10
78
48
48
78
08
78
00
ENDCHAR
STARTCHAR char601
ENCODING 601
SWIDTH 700 0
DWIDTH 7 0
BBX 7 11 0 -2
BITMAP
00
00
00
00
78
08
38
48
70
00
00
ENDCHAR
STARTCHAR char702
ENCODING 702
SWIDTH 700 0
DWIDTH 7 0
BBX 7 11 0 -2
BITMAP
00
00
00
60
10
10
60
00
00
00
00
ENDCHAR
STARTCHAR char703
ENCODING 703
SWIDTH 700 0
DWIDTH 7 0
BBX 7 11 0 -2
BITMAP
00
00
00
30
40
40
30
00
00
00
00
ENDCHAR
STARTCHAR char722
ENCODING 722
SWIDTH 700 0
DWIDTH 7 0
BBX 7 11 0 -2
BITMAP
00
00
00
60
10
10
60
00
00
00
00
ENDCHAR
STARTCHAR char723
ENCODING 723
SWIDTH 700 0
DWIDTH 7 0
BBX 7 11 0 -2
BITMAP
00
00
00
30
40
40
30
00
00
00
00
ENDCHAR
STARTCHAR char1456
ENCODING 1456
SWIDTH 700 0
DWIDTH 7 0
BBX 7 11 0 -2
BITMAP
00
00
00
00
00
00
00
00
00
08
08
ENDCHAR
STARTCHAR char1457
ENCODING 1457
SWIDTH 700 0
DWIDTH 7 0
BBX 7 11 0 -2
BITMAP
00
00
00
00
00
00
00
00
00
54
24
ENDCHAR
STARTCHAR char1458
ENCODING 1458
SWIDTH 700 0
DWIDTH 7 0
BBX 7 11 0 -2
BITMAP
00
00
00
00
00
00
00
00
00
74
04
ENDCHAR
STARTCHAR char1459
ENCODING 1459
SWIDTH 700 0
DWIDTH 7 0
BBX 7 11 0 -2
BITMAP
00
00
00
00
00
00
00
00
00
74
24
ENDCHAR
STARTCHAR char1460
ENCODING 1460
SWIDTH 700 0
DWIDTH 7 0
BBX 7 11 0 -2
BITMAP
00
00
00
00
00
00
00
00
00
08
00
ENDCHAR
STARTCHAR char1461
ENCODING 1461
SWIDTH 700 0
DWIDTH 7 0
BBX 7 11 0 -2
BITMAP
00
00
00
00
00
00
00
00
00
14
00
ENDCHAR
STARTCHAR char1462
ENCODING 1462
SWIDTH 700 0
DWIDTH 7 0
BBX 7 11 0 -2
BITMAP
00
00
00
00
00
00
00
00
00
14
08
ENDCHAR
STARTCHAR char1463
ENCODING 1463
SWIDTH 700 0
DWIDTH 7 0
BBX 7 11 0 -2
BITMAP
00
00
00
00
00
00
00
00
00
1C
00
ENDCHAR
STARTCHAR char1464
ENCODING 1464
SWIDTH 700 0
DWIDTH 7 0
BBX 7 11 0 -2
BITMAP
00
00
00
00
00
00
00
00
00
38
10
ENDCHAR
STARTCHAR char1465
ENCODING 1465
SWIDTH 700 0
DWIDTH 7 0
BBX 7 11 0 -2
BITMAP
00
40
00
00
00
00
00
00
00
00
00
ENDCHAR
STARTCHAR char1466
ENCODING 1466
SWIDTH 700 0
DWIDTH 7 0
BBX 7 11 0 -2
BITMAP
00
40
00
00
00
00
00
00
00
00
00
ENDCHAR
STARTCHAR char1467
ENCODING 1467
SWIDTH 700 0
DWIDTH 7 0
BBX 7 11 0 -2
BITMAP
00
00
00
00
00
00
00
00
00
40
14
ENDCHAR
STARTCHAR char1468
ENCODING 1468
SWIDTH 700 0
DWIDTH 7 0
BBX 7 11 0 -2
BITMAP
00
00
00
00
00
10
00
00
00
00
00
ENDCHAR
STARTCHAR char1469
ENCODING 1469
SWIDTH 700 0
DWIDTH 7 0
BBX 7 11 0 -2
BITMAP
00
00
00
00
00
00
00
00
00
08
08
ENDCHAR
STARTCHAR char1470
ENCODING 1470
SWIDTH 700 0
DWIDTH 7 0
BBX 7 11 0 -2
BITMAP
00
00
00
3C
00
00
00
00
00
00
00
ENDCHAR
STARTCHAR char1471
ENCODING 1471
SWIDTH 700 0
DWIDTH 7 0
BBX 7 11 0 -2
BITMAP
00
38
00
00
00
00
00
00
00
00
00
ENDCHAR
STARTCHAR char1472
ENCODING 1472
SWIDTH 700 0
DWIDTH 7 0
BBX 7 11 0 -2
BITMAP
00
00
00
10
10
10
10
10
10
10
00
ENDCHAR
STARTCHAR char1473
ENCODING 1473
SWIDTH 700 0
DWIDTH 7 0
BBX 7 11 0 -2
BITMAP
00
04
00
00
00
00
00
00
00
00
00
ENDCHAR
STARTCHAR char1474
ENCODING 1474
SWIDTH 700 0
DWIDTH 7 0
BBX 7 11 0 -2
BITMAP
00
40
00
00
00
00
00
00
00
00
00
ENDCHAR
STARTCHAR char1475
ENCODING 1475
SWIDTH 700 0
DWIDTH 7 0
BBX 7 11 0 -2
BITMAP
00
00
00
18
18
00
00
18
18
00
00
ENDCHAR
STARTCHAR char1476
ENCODING 1476
SWIDTH 700 0
DWIDTH 7 0
BBX 7 11 0 -2
BITMAP
00
00
00
18
10
10
10
18
00
00
00
ENDCHAR
STARTCHAR char1477
ENCODING 1477
SWIDTH 700 0
DWIDTH 7 0
BBX 7 11 0 -2
BITMAP
00
00
00
00
00
00
00
00
00
00
00
ENDCHAR
STARTCHAR char1488
ENCODING 1488
SWIDTH 700 0
DWIDTH 7 0
BBX 7 11 0 -2
BITMAP
00
00
00
24
34
18
2C
24
00
00
00
ENDCHAR
STARTCHAR char1489
ENCODING 1489
SWIDTH 700 0
DWIDTH 7 0
BBX 7 11 0 -2
BITMAP
00
00
00
3C
04
04
04
3E
00
00
00
ENDCHAR
STARTCHAR char1490
ENCODING 1490
SWIDTH 700 0
DWIDTH 7 0
BBX 7 11 0 -2
BITMAP
00
00
00
0C
04
04
1C
14
00
00
00
ENDCHAR
STARTCHAR char1491
ENCODING 1491
SWIDTH 700 0
DWIDTH 7 0
BBX 7 11 0 -2
BITMAP
00
00
00
3E
04
04
04
04
00
00
00
ENDCHAR
STARTCHAR char1492
ENCODING 1492
SWIDTH 700 0
DWIDTH 7 0
BBX 7 11 0 -2
BITMAP
00
00
00
3C
04
24
24
24
00
00
00
ENDCHAR
STARTCHAR char1493
ENCODING 1493
SWIDTH 700 0
DWIDTH 7 0
BBX 7 11 0 -2
BITMAP
00
00
00
18
08
08
08
08
00
00
00
ENDCHAR
STARTCHAR char1494
ENCODING 1494
SWIDTH 700 0
DWIDTH 7 0
BBX 7 11 0 -2
BITMAP
00
00
00
18
0C
08
08
08
00
00
00
ENDCHAR
STARTCHAR char1495
ENCODING 1495
SWIDTH 700 0
DWIDTH 7 0
BBX 7 11 0 -2
BITMAP
00
00
00
3C
24
24
24
24
00
00
00
ENDCHAR
STARTCHAR char1496
ENCODING 1496
SWIDTH 700 0
DWIDTH 7 0
BBX 7 11 0 -2
BITMAP
00
00
00
24
2C
24
24
3C
00
00
00
ENDCHAR
STARTCHAR char1497
ENCODING 1497
SWIDTH 700 0
DWIDTH 7 0
BBX 7 11 0 -2
BITMAP
00
00
00
18
08
08
00
00
00
00
00
ENDCHAR
STARTCHAR char1498
ENCODING 1498
SWIDTH 700 0
DWIDTH 7 0
BBX 7 11 0 -2
BITMAP
00
00
00
3C
04
04
04
04
04
04
00
ENDCHAR
STARTCHAR char1499
ENCODING 1499
SWIDTH 700 0
DWIDTH 7 0
BBX 7 11 0 -2
BITMAP
00
00
00
3C
04
04
04
3C
00
00
00
ENDCHAR
STARTCHAR char1500
ENCODING 1500
SWIDTH 700 0
DWIDTH 7 0
BBX 7 11 0 -2
BITMAP
00
20
20
3C
04
0C
18
10
00
00
00
ENDCHAR
STARTCHAR char1501
ENCODING 1501
SWIDTH 700 0
DWIDTH 7 0
BBX 7 11 0 -2
BITMAP
00
00
00
38
24
24
24
3C
00
00
00
ENDCHAR
STARTCHAR char1502
ENCODING 1502
SWIDTH 700 0
DWIDTH 7 0
BBX 7 11 0 -2
BITMAP
00
00
00
5C
74
64
44
5C
00
00
00
ENDCHAR
STARTCHAR char1503
ENCODING 1503
SWIDTH 700 0
DWIDTH 7 0
BBX 7 11 0 -2
BITMAP
00
00
00
18
08
08
08
08
08
08
00
ENDCHAR
STARTCHAR char1504
ENCODING 1504
SWIDTH 700 0
DWIDTH 7 0
BBX 7 11 0 -2
BITMAP
00
00
00
18
08
08
08
18
00
00
00
ENDCHAR
STARTCHAR char1505
ENCODING 1505
SWIDTH 700 0
DWIDTH 7 0
BBX 7 11 0 -2
BITMAP
00
00
00
7C
24
24
2C
38
00
00
00
ENDCHAR
STARTCHAR char1506
ENCODING 1506
SWIDTH 700 0
DWIDTH 7 0
BBX 7 11 0 -2
BITMAP
00
00
00
24
24
34
1C
78
00
00
00
ENDCHAR
STARTCHAR char1507
ENCODING 1507
SWIDTH 700 0
DWIDTH 7 0
BBX 7 11 0 -2
BITMAP
00
00
00
3C
24
34
04
04
04
04
00
ENDCHAR
STARTCHAR char1508
ENCODING 1508
SWIDTH 700 0
DWIDTH 7 0
BBX 7 11 0 -2
BITMAP
00
00
00
3C
24
34
04
3C
00
00
00
ENDCHAR
STARTCHAR char1509
ENCODING 1509
SWIDTH 700 0
DWIDTH 7 0
BBX 7 11 0 -2
BITMAP
00
00
00
24
34
18
08
08
08
08
00
ENDCHAR
STARTCHAR char1510
ENCODING 1510
SWIDTH 700 0
DWIDTH 7 0
BBX 7 11 0 -2
BITMAP
00
00
00
24
34
18
0C
3C
00
00
00
ENDCHAR
STARTCHAR char1511
ENCODING 1511
SWIDTH 700 0
DWIDTH 7 0
BBX 7 11 0 -2
BITMAP
00
00
00
7C
04
24
2C
20
20
20
00
ENDCHAR
STARTCHAR char1512
ENCODING 1512
SWIDTH 700 0
DWIDTH 7 0
BBX 7 11 0 -2
BITMAP
00
00
00
3C
04
04
04
04
00
00
00
ENDCHAR
STARTCHAR char1513
ENCODING 1513
SWIDTH 700 0
DWIDTH 7 0
BBX 7 11 0 -2
BITMAP
00
00
00
54
54
74
44
78
00
00
00
ENDCHAR
STARTCHAR char1514
ENCODING 1514
SWIDTH 700 0
DWIDTH 7 0
BBX 7 11 0 -2
BITMAP
00
00
00
7C
24
24
24
64
00
00
00
ENDCHAR
STARTCHAR char1520
ENCODING 1520
SWIDTH 700 0
DWIDTH 7 0
BBX 7 11 0 -2
BITMAP
00
00
00
6C
24
24
24
24
00
00
00
ENDCHAR
STARTCHAR char1521
ENCODING 1521
SWIDTH 700 0
DWIDTH 7 0
BBX 7 11 0 -2
BITMAP
00
00
00
6C
24
24
04
04
00
00
00
ENDCHAR
STARTCHAR char1522
ENCODING 1522
SWIDTH 700 0
DWIDTH 7 0
BBX 7 11 0 -2
BITMAP
00
00
00
6C
24
24
00
00
00
00
00
ENDCHAR
STARTCHAR char1523
ENCODING 1523
SWIDTH 700 0
DWIDTH 7 0
BBX 7 11 0 -2
BITMAP
00
00
04
0C
08
00
00
00
00
00
00
ENDCHAR
STARTCHAR char1524
ENCODING 1524
SWIDTH 700 0
DWIDTH 7 0
BBX 7 11 0 -2
BITMAP
00
00
24
6C
48
00
00
00
00
00
00
ENDCHAR
STARTCHAR char7686
ENCODING 7686
SWIDTH 700 0
DWIDTH 7 0
BBX 7 11 0 -2
BITMAP
00
00
00
70
50
78
48
48
78
00
78
ENDCHAR
STARTCHAR char7687
ENCODING 7687
SWIDTH 700 0
DWIDTH 7 0
BBX 7 11 0 -2
BITMAP
00
00
40
40
78
48
48
48
78
00
78
ENDCHAR
STARTCHAR char7692
ENCODING 7692
SWIDTH 700 0
DWIDTH 7 0
BBX 7 11 0 -2
BITMAP
00
00
00
78
24
24
24
24
78
00
10
ENDCHAR
STARTCHAR char7693
ENCODING 7693
SWIDTH 700 0
DWIDTH 7 0
BBX 7 11 0 -2
BITMAP
00
00
08
08
78
48
48
48
78
00
10
ENDCHAR
STARTCHAR char7694
ENCODING 7694
SWIDTH 700 0
DWIDTH 7 0
BBX 7 11 0 -2
BITMAP
00
00
00
78
24
24
24
24
78
00
3C
ENDCHAR
STARTCHAR char7695
ENCODING 7695
SWIDTH 700 0
DWIDTH 7 0
BBX 7 11 0 -2
BITMAP
00
00
08
08
78
48
48
48
78
00
78
ENDCHAR
STARTCHAR char7712
ENCODING 7712
SWIDTH 700 0
DWIDTH 7 0
BBX 7 11 0 -2
BITMAP
00
38
00
38
40
40
58
48
78
00
00
ENDCHAR
STARTCHAR char7713
ENCODING 7713
SWIDTH 700 0
DWIDTH 7 0
BBX 7 11 0 -2
BITMAP
00
00
78
00
78
48
48
78
08
78
00
ENDCHAR
STARTCHAR char7716
ENCODING 7716
SWIDTH 700 0
DWIDTH 7 0
BBX 7 11 0 -2
BITMAP
00
00
00
48
48
48
78
48
48
00
10
ENDCHAR
STARTCHAR char7717
ENCODING 7717
SWIDTH 700 0
DWIDTH 7 0
BBX 7 11 0 -2
BITMAP
00
00
40
40
78
48
48
48
48
00
10
ENDCHAR
STARTCHAR char7722
ENCODING 7722
SWIDTH 700 0
DWIDTH 7 0
BBX 7 11 0 -2
BITMAP
00
00
00
48
48
78
48
48
00
48
30
ENDCHAR
STARTCHAR char7723
ENCODING 7723
SWIDTH 700 0
DWIDTH 7 0
BBX 7 11 0 -2
BITMAP
00
00
40
40
78
48
48
48
00
48
30
ENDCHAR
STARTCHAR char7730
ENCODING 7730
SWIDTH 700 0
DWIDTH 7 0
BBX 7 11 0 -2
BITMAP
00
00
00
48
48
48
70
48
48
00
10
ENDCHAR
STARTCHAR char7731
ENCODING 7731
SWIDTH 700 0
DWIDTH 7 0
BBX 7 11 0 -2
BITMAP
00
00
40
40
48
48
70
48
48
00
10
ENDCHAR
STARTCHAR char7732
ENCODING 7732
SWIDTH 700 0
DWIDTH 7 0
BBX 7 11 0 -2
BITMAP
00
00
00
48
48
48
70
48
48
00
78
ENDCHAR
STARTCHAR char7733
ENCODING 7733
SWIDTH 700 0
DWIDTH 7 0
BBX 7 11 0 -2
BITMAP
00
00
40
40
48
48
70
48
48
00
78
ENDCHAR
STARTCHAR char7778
ENCODING 7778
SWIDTH 700 0
DWIDTH 7 0
BBX 7 11 0 -2
BITMAP
00
00
00
38
40
40
78
08
78
00
10
ENDCHAR
STARTCHAR char7779
ENCODING 7779
SWIDTH 700 0
DWIDTH 7 0
BBX 7 11 0 -2
BITMAP
00
00
00
00
78
40
78
08
78
00
10
ENDCHAR
STARTCHAR char7788
ENCODING 7788
SWIDTH 700 0
DWIDTH 7 0
BBX 7 11 0 -2
BITMAP
00
00
00
7C
54
10
10
10
10
00
10
ENDCHAR
STARTCHAR char7789
ENCODING 7789
SWIDTH 700 0
DWIDTH 7 0
BBX 7 11 0 -2
BITMAP
00
00
20
20
38
20
20
28
38
00
10
ENDCHAR
STARTCHAR char7790
ENCODING 7790
SWIDTH 700 0
DWIDTH 7 0
BBX 7 11 0 -2
BITMAP
00
00
00
7C
54
10
10
10
10
00
38
ENDCHAR
STARTCHAR char7791
ENCODING 7791
SWIDTH 700 0
DWIDTH 7 0
BBX 7 11 0 -2
BITMAP
00
00
20
20
38
20
20
28
38
00
38
ENDCHAR
STARTCHAR char7826
ENCODING 7826
SWIDTH 700 0
DWIDTH 7 0
BBX 7 11 0 -2
BITMAP
00
00
00
78
18
10
20
60
78
00
10
ENDCHAR
STARTCHAR char7827
ENCODING 7827
SWIDTH 700 0
DWIDTH 7 0
BBX 7 11 0 -2
BITMAP
00
00
00
00
78
08
30
40
78
00
10
ENDCHAR
STARTCHAR char8364
ENCODING 8364
SWIDTH 700 0
DWIDTH 7 0
BBX 7 11 0 -2
BITMAP
00
00
1C
20
78
20
70
20
1C
00
00
ENDCHAR
STARTCHAR char64285
ENCODING 64285
SWIDTH 700 0
DWIDTH 7 0
BBX 7 11 0 -2
BITMAP
00
00
00
18
08
08
00
00
10
00
00
ENDCHAR
STARTCHAR char64298
ENCODING 64298
SWIDTH 700 0
DWIDTH 7 0
BBX 7 11 0 -2
BITMAP
00
04
00
54
54
74
44
78
00
00
00
ENDCHAR
STARTCHAR char64299
ENCODING 64299
SWIDTH 700 0
DWIDTH 7 0
BBX 7 11 0 -2
BITMAP
00
40
00
54
54
74
44
78
00
00
00
ENDCHAR
STARTCHAR char64300
ENCODING 64300
SWIDTH 700 0
DWIDTH 7 0
BBX 7 11 0 -2
BITMAP
00
04
00
54
54
74
5C
78
00
00
00
ENDCHAR
STARTCHAR char64301
ENCODING 64301
SWIDTH 700 0
DWIDTH 7 0
BBX 7 11 0 -2
BITMAP
00
40
00
54
54
74
5C
78
00
00
00
ENDCHAR
STARTCHAR char64302
ENCODING 64302
SWIDTH 700 0
DWIDTH 7 0
BBX 7 11 0 -2
BITMAP
00
00
00
24
34
18
2C
24
00
1C
00
ENDCHAR
STARTCHAR char64303
ENCODING 64303
SWIDTH 700 0
DWIDTH 7 0
BBX 7 11 0 -2
BITMAP
00
00
00
24
34
18
2C
24
00
1C
08
ENDCHAR
STARTCHAR char64304
ENCODING 64304
SWIDTH 700 0
DWIDTH 7 0
BBX 7 11 0 -2
BITMAP
00
00
00
24
34
18
2C
24
00
08
00
ENDCHAR
STARTCHAR char64305
ENCODING 64305
SWIDTH 700 0
DWIDTH 7 0
BBX 7 11 0 -2
BITMAP
00
00
00
3C
04
14
04
3E
00
00
00
ENDCHAR
STARTCHAR char64306
ENCODING 64306
SWIDTH 700 0
DWIDTH 7 0
BBX 7 11 0 -2
BITMAP
00
00
00
0C
04
14
0C
14
00
00
00
ENDCHAR
STARTCHAR char64307
ENCODING 64307
SWIDTH 700 0
DWIDTH 7 0
BBX 7 11 0 -2
BITMAP
00
00
00
3E
04
14
04
04
00
00
00
ENDCHAR
STARTCHAR char64308
ENCODING 64308
SWIDTH 700 0
DWIDTH 7 0
BBX 7 11 0 -2
BITMAP
00
00
00
3C
04
2C
24
24
00
00
00
ENDCHAR
STARTCHAR char64309
ENCODING 64309
SWIDTH 700 0
DWIDTH 7 0
BBX 7 11 0 -2
BITMAP
00
00
00
18
08
18
08
08
00
00
00
ENDCHAR
STARTCHAR char64310
ENCODING 64310
SWIDTH 700 0
DWIDTH 7 0
BBX 7 11 0 -2
BITMAP
00
00
00
18
0C
18
08
08
00
00
00
ENDCHAR
STARTCHAR char64311
ENCODING 64311
SWIDTH 700 0
DWIDTH 7 0
BBX 7 11 0 -2
BITMAP
00
00
00
00
00
00
00
00
00
00
00
ENDCHAR
STARTCHAR char64312
ENCODING 64312
SWIDTH 700 0
DWIDTH 7 0
BBX 7 11 0 -2
BITMAP
00
00
00
5C
44
54
44
7C
00
00
00
ENDCHAR
STARTCHAR char64313
ENCODING 64313
SWIDTH 700 0
DWIDTH 7 0
BBX 7 11 0 -2
BITMAP
00
00
00
18
08
28
00
00
00
00
00
ENDCHAR
STARTCHAR char64314
ENCODING 64314
SWIDTH 700 0
DWIDTH 7 0
BBX 7 11 0 -2
BITMAP
00
00
00
3C
04
14
04
04
04
04
00
ENDCHAR
STARTCHAR char64315
ENCODING 64315
SWIDTH 700 0
DWIDTH 7 0
BBX 7 11 0 -2
BITMAP
00
00
00
3C
04
14
04
3C
00
00
00
ENDCHAR
STARTCHAR char64316
ENCODING 64316
SWIDTH 700 0
DWIDTH 7 0
BBX 7 11 0 -2
BITMAP
00
20
20
3C
04
2C
18
10
00
00
00
ENDCHAR
STARTCHAR char64318
ENCODING 64318
SWIDTH 700 0
DWIDTH 7 0
BBX 7 11 0 -2
BITMAP
00
00
00
5C
74
6C
44
5C
00
00
00
ENDCHAR
STARTCHAR char64319
ENCODING 64319
SWIDTH 700 0
DWIDTH 7 0
BBX 7 11 0 -2
BITMAP
00
00
00
00
00
00
00
00
00
00
00
ENDCHAR
STARTCHAR char64320
ENCODING 64320
SWIDTH 700 0
DWIDTH 7 0
BBX 7 11 0 -2
BITMAP
00
00
00
18
08
18
08
18
00
00
00
ENDCHAR
STARTCHAR char64321
ENCODING 64321
SWIDTH 700 0
DWIDTH 7 0
BBX 7 11 0 -2
BITMAP
00
00
00
7C
24
2C
24
38
00
00
00
ENDCHAR
STARTCHAR char64322
ENCODING 64322
SWIDTH 700 0
DWIDTH 7 0
BBX 7 11 0 -2
BITMAP
00
00
00
00
00
00
00
00
00
00
00
ENDCHAR
STARTCHAR char64323
ENCODING 64323
SWIDTH 700 0
DWIDTH 7 0
BBX 7 11 0 -2
BITMAP
00
00
00
3C
24
2C
04
04
04
04
00
ENDCHAR
STARTCHAR char64324
ENCODING 64324
SWIDTH 700 0
DWIDTH 7 0
BBX 7 11 0 -2
BITMAP
00
00
00
3C
24
2C
04
3C
00
00
00
ENDCHAR
STARTCHAR char64326
ENCODING 64326
SWIDTH 700 0
DWIDTH 7 0
BBX 7 11 0 -2
BITMAP
00
00
00
24
34
58
0C
3C
00
00
00
ENDCHAR
STARTCHAR char64327
ENCODING 64327
SWIDTH 700 0
DWIDTH 7 0
BBX 7 11 0 -2
BITMAP
00
00
00
7C
04
2C
24
28
20
20
00
ENDCHAR
STARTCHAR char64328
ENCODING 64328
SWIDTH 700 0
DWIDTH 7 0
BBX 7 11 0 -2
BITMAP
00
00
00
3C
04
14
04
04
00
00
00
ENDCHAR
STARTCHAR char64329
ENCODING 64329
SWIDTH 700 0
DWIDTH 7 0
BBX 7 11 0 -2
BITMAP
00
00
00
54
54
74
5C
78
00
00
00
ENDCHAR
STARTCHAR char64330
ENCODING 64330
SWIDTH 700 0
DWIDTH 7 0
BBX 7 11 0 -2
BITMAP
00
00
00
7C
24
2C
24
64
00
00
00
ENDCHAR
STARTCHAR char64331
ENCODING 64331
SWIDTH 700 0
DWIDTH 7 0
BBX 7 11 0 -2
BITMAP
00
08
00
18
08
08
08
08
00
00
00
ENDCHAR
STARTCHAR char64332
ENCODING 64332
SWIDTH 700 0
DWIDTH 7 0
BBX 7 11 0 -2
BITMAP
00
1C
00
3C
04
04
04
3E
00
00
00
ENDCHAR
STARTCHAR char64333
ENCODING 64333
SWIDTH 700 0
DWIDTH 7 0
BBX 7 11 0 -2
BITMAP
00
1C
00
3C
04
04
04
3C
00
00
00
ENDCHAR
STARTCHAR char64334
ENCODING 64334
SWIDTH 700 0
DWIDTH 7 0
BBX 7 11 0 -2
BITMAP
00
1C
00
3C
24
34
04
3C
00
00
00
ENDCHAR
ENDFONT
